<svg width="163" height="27" viewBox="0 0 163 27" fill="none" xmlns="http://www.w3.org/2000/svg">
<g clip-path="url(#clip0_2_2)">
<path fill-rule="evenodd" clip-rule="evenodd" d="M9.46452 7.7034V12.7373H18.1028H23.5111C24.8631 12.7373 25.9899 11.5932 25.9899 10.2203C25.9899 8.84746 24.8631 7.7034 23.5111 7.7034H9.46452ZM24.6378 26.6186L20.7318 20.5169H9.46452V26.6186H0V0H25.6143C31.0226 0 35.3793 4.42373 35.3793 9.91526C35.3793 13.6525 33.3512 16.8559 30.3465 18.5339C32.0742 21.2034 33.8018 23.9492 35.5295 26.6186H24.6378ZM49.7263 7.85595H66.2516V19.2966H49.7263V7.85595ZM69.106 0.0762759H46.6465C43.1161 0.152547 40.2618 3.12713 40.2618 6.71188V20.3644C40.2618 23.9492 43.1161 26.9237 46.6465 27H69.2562C72.7866 26.9237 75.641 23.9492 75.641 20.3644V6.71188C75.7161 3.12713 72.7115 0.0762759 69.106 0.0762759ZM107.114 17.6949V0.533908H116.579V26.5424H101.931L90.664 9.07627V26.5424H81.1995V0.228828H95.847L107.114 17.6949ZM152.334 26.6186H163L146.174 0.610184H134.832L118.006 26.6186H128.672L130.851 23.1864H150.155L152.334 26.6186ZM135.733 15.4068L140.465 7.85595L145.198 15.4068H135.733Z" fill="url(#paint0_linear_2_2)"/>
</g>
<defs>
<linearGradient id="paint0_linear_2_2" x1="81.4983" y1="-13.3973" x2="81.4983" y2="95.412" gradientUnits="userSpaceOnUse">
<stop stop-color="#FCC869"/>
<stop offset="0.24" stop-color="#E62E25"/>
<stop offset="0.48" stop-color="#D01656"/>
<stop offset="0.73" stop-color="#561B53"/>
<stop offset="1" stop-color="#2A1E53"/>
</linearGradient>
<clipPath id="clip0_2_2">
<rect width="163" height="27" fill="white"/>
</clipPath>
</defs>
</svg>
